<svg height="24" viewBox="0 0 24 24" width="24" xmlns="http://www.w3.org/2000/svg"><path d="m7 18c3.866 0 7-2.9305 7-6.5455 0-1.89493-1.3224-3.4332-2.8959-5.26352-1.42826-1.66132-3.06327-3.56329-4.1041-6.19098-1.22449 2.37799-2.69232 4.16162-3.96686 5.71045-1.68554 2.04816-3.03314 3.68567-3.03314 5.74405 0 3.615 3.13403 6.5455 7 6.5455zm-2.83356-10.97687c.16577-.26642.52405-.35278.8003-.19293.2763.15979.36584.50531.20013.77173-.14264.22906-.29083.45764-.43903.68622l-.00164.00256c-.31458.48535-.62915.97064-.89002 1.46021-.38507.71808-.63672 1.36368-.62787 2.06158 0 1.4338 1.11908 2.6019 1.55182 2.9358.25159.1941.29236.548.09113.7906-.2013.2426-.56836.2819-.81995.0879-.53943-.4162-1.98968-1.873-1.98968-3.8143.00885-.8931.34057-1.7943.7575-2.57697.28754-.53643.6236-1.05542.94495-1.55169l.0011-.00171c.14538-.22449.28772-.44428.42126-.659z" fill="#363a3e" fill-opacity=".5" fill-rule="evenodd" transform="translate(5 3)"/></svg>